<?xml version="1.0" standalone="no"?>
<!DOCTYPE svg PUBLIC "-//W3C//DTD SVG 20010904//EN"
 "http://www.w3.org/TR/2001/REC-SVG-20010904/DTD/svg10.dtd">
<svg version="1.0" xmlns="http://www.w3.org/2000/svg"
 width="1280.000000pt" height="750.000000pt" viewBox="0 0 1280.000000 750.000000"
 preserveAspectRatio="xMidYMid meet">
<metadata>
Created by potrace 1.15, written by Peter Selinger 2001-2017
</metadata>
<g transform="translate(0.000000,750.000000) scale(0.100000,-0.100000)"
fill="#000000" stroke="none">
<path d="M9858 7489 c-14 -7 -18 -23 -18 -62 0 -54 -16 -211 -26 -259 -3 -16
-12 -28 -19 -28 -7 0 -16 -13 -20 -29 l-6 -29 -287 -6 c-915 -20 -2590 -27
-5445 -24 l-3168 3 -3 80 c-4 72 -7 82 -32 103 -27 23 -33 24 -133 19 -127 -6
-199 -21 -243 -51 -29 -19 -33 -28 -36 -70 -2 -26 2 -54 9 -62 10 -12 -2 -14
-78 -14 -88 0 -90 -1 -111 -30 -18 -23 -30 -30 -57 -30 -34 0 -36 -3 -66 -70
-18 -38 -37 -70 -44 -70 -13 0 -32 -68 -57 -200 -16 -84 -16 -416 0 -500 26
-138 44 -200 58 -200 11 0 14 -33 14 -182 1 -172 3 -194 39 -365 20 -101 41
-186 45 -190 4 -5 608 -9 1342 -11 l1334 -3 0 -27 c1 -15 11 -47 23 -72 l22
-45 810 -5 810 -5 70 -29 c152 -63 339 -209 382 -298 13 -28 36 -133 63 -293
56 -338 75 -429 105 -504 77 -197 226 -358 420 -451 147 -72 142 -71 844 -69
710 2 784 -4 1018 -72 69 -21 73 -24 150 -111 185 -212 251 -326 302 -518 40
-152 133 -522 159 -635 12 -49 35 -148 52 -220 17 -71 39 -168 50 -215 11 -47
31 -132 45 -190 13 -58 38 -168 55 -245 17 -77 39 -176 50 -220 10 -44 42
-181 70 -305 96 -422 94 -417 121 -425 11 -4 19 -15 19 -27 0 -12 5 -37 12
-55 10 -27 10 -38 0 -53 -16 -26 -15 -55 2 -72 7 -8 58 -22 112 -32 91 -16
185 -17 1164 -14 l1065 3 3 38 c3 35 1 38 -27 43 -28 6 -31 10 -31 45 0 21 -4
49 -10 63 l-10 26 108 0 c65 0 116 5 131 13 40 20 63 61 70 124 7 66 -1 130
-58 433 -22 118 -58 313 -81 433 -22 119 -58 315 -80 435 -23 119 -45 240 -50
267 -5 28 -27 147 -49 265 -22 118 -58 312 -80 430 -22 118 -59 314 -81 435
-23 121 -45 240 -49 265 -5 25 -27 149 -51 275 -40 218 -42 237 -37 365 10
263 78 462 223 657 129 173 323 329 589 473 92 49 116 69 155 125 86 125 109
366 64 670 -60 402 -237 705 -544 931 -44 32 -80 64 -80 70 0 7 -7 15 -16 18
-24 9 -14 50 14 54 28 4 31 42 3 42 -27 0 -39 40 -17 55 23 18 20 45 -5 45
-12 0 -28 8 -35 18 -10 14 -10 20 3 34 19 22 7 41 -22 34 -28 -7 -58 22 -45
44 5 9 5 19 -2 27 -9 11 -14 11 -29 -3 -24 -21 -63 -2 -56 27 7 26 -22 38 -38
16 -17 -23 -52 -21 -60 3 -3 11 -15 20 -26 20 -12 0 -19 -7 -19 -20 0 -25 -45
-28 -58 -3 -13 22 -46 9 -39 -16 6 -26 -36 -46 -54 -25 -16 20 -42 -1 -33 -28
8 -27 -13 -49 -41 -42 -27 7 -42 -11 -25 -31 18 -22 3 -55 -26 -55 -13 0 -24
-5 -24 -10 0 -7 -35 -10 -97 -8 l-98 3 -3 28 c-2 18 -9 27 -21 27 -14 0 -19
15 -29 89 -7 48 -12 125 -12 169 0 70 -3 83 -19 92 -25 13 -61 12 -83 -1z
m-6968 -1693 c0 -9 -31 -76 -35 -76 -3 0 -5 18 -5 40 0 33 3 40 20 40 11 0 20
-2 20 -4z m3817 -744 c8 -5 3 -12 -17 -20 -47 -21 -114 -87 -143 -141 -44 -80
-45 -127 -4 -261 47 -153 61 -258 54 -389 -7 -120 -22 -183 -65 -275 -47 -101
-104 -177 -194 -260 -119 -111 -121 -110 173 -114 204 -2 359 6 417 24 46 14
-49 -31 -108 -51 -118 -40 -217 -47 -600 -43 -325 4 -362 6 -433 26 -268 74
-477 283 -549 549 -27 101 -29 277 -5 376 68 274 286 496 557 566 68 18 112
20 490 20 228 1 420 -3 427 -7z"/>
</g>
</svg>
